<svg xmlns="http://www.w3.org/2000/svg" xmlns:xlink="http://www.w3.org/1999/xlink" width="500" zoomAndPan="magnify" viewBox="0 0 375 374.999991" height="500" preserveAspectRatio="xMidYMid meet" version="1.0"><defs><clipPath id="811ab35038"><path d="M 187.5 0 C 83.945312 0 0 83.945312 0 187.5 C 0 291.054688 83.945312 375 187.5 375 C 291.054688 375 375 291.054688 375 187.5 C 375 83.945312 291.054688 0 187.5 0 Z M 187.5 0 " clip-rule="nonzero"/></clipPath><clipPath id="663273491c"><path d="M 11.601562 11.601562 L 363.351562 11.601562 L 363.351562 363.351562 L 11.601562 363.351562 Z M 11.601562 11.601562 " clip-rule="nonzero"/></clipPath></defs><g clip-path="url(#811ab35038)"><rect x="-37.5" width="450" fill="#ffffff" y="-37.499999" height="449.999989" fill-opacity="1"/></g><g clip-path="url(#663273491c)"><path fill="#06a3da" d="M 187.5 11.601562 C 90.335938 11.601562 11.601562 90.335938 11.601562 187.5 C 11.601562 284.660156 90.335938 363.398438 187.5 363.398438 C 284.660156 363.398438 363.398438 284.660156 363.398438 187.5 C 363.246094 90.335938 284.507812 11.601562 187.5 11.601562 Z M 187.5 303.851562 C 175.621094 303.851562 164.046875 302.328125 153.234375 299.433594 L 125.667969 314.054688 C 117.902344 318.167969 108.304688 312.53125 108.304688 303.699219 L 108.304688 277.808594 C 79.523438 256.183594 61.097656 223.136719 61.097656 186.128906 C 61.097656 121.097656 117.597656 68.40625 187.5 68.40625 C 257.25 68.40625 313.902344 121.097656 313.902344 186.128906 C 313.902344 251.15625 257.25 303.851562 187.5 303.851562 Z M 187.5 303.851562 " fill-opacity="1" fill-rule="nonzero"/></g><path fill="#06a3da" d="M 100.234375 228.617188 L 167.242188 157.496094 C 170.441406 154.148438 175.773438 154.148438 178.96875 157.34375 L 204.859375 183.691406 C 207.449219 186.28125 211.410156 186.890625 214.605469 185.0625 L 274.914062 151.253906 L 207.144531 222.375 C 203.945312 225.722656 198.617188 225.722656 195.417969 222.375 L 171.050781 197.246094 C 168.460938 194.65625 164.503906 194.046875 161.304688 195.722656 Z M 100.234375 228.617188 " fill-opacity="1" fill-rule="nonzero"/></svg>