<svg xmlns="http://www.w3.org/2000/svg" xmlns:xlink="http://www.w3.org/1999/xlink" width="50" zoomAndPan="magnify" viewBox="0 0 37.5 37.499999" height="50" preserveAspectRatio="xMidYMid meet" version="1.0"><defs><clipPath id="a3793a2e70"><path d="M 0 0 L 37.007812 0 L 37.007812 37.007812 L 0 37.007812 Z M 0 0 " clip-rule="nonzero"/></clipPath></defs><g clip-path="url(#a3793a2e70)"><path fill="#000000" d="M 18.503906 0 C 8.300781 0 0 8.300781 0 18.503906 C 0 28.703125 8.300781 37.007812 18.503906 37.007812 C 23.003906 37.007812 27.148438 35.390625 30.355469 32.710938 C 30.914062 32.242188 30.992188 31.410156 30.523438 30.851562 C 30.054688 30.289062 29.222656 30.210938 28.664062 30.679688 C 25.910156 32.980469 22.378906 34.363281 18.503906 34.363281 C 9.726562 34.363281 2.644531 27.28125 2.644531 18.503906 C 2.644531 9.726562 9.726562 2.644531 18.503906 2.644531 C 27.28125 2.644531 34.363281 9.726562 34.363281 18.503906 C 34.363281 21.125 33.730469 23.582031 32.609375 25.757812 C 32.277344 26.40625 32.53125 27.203125 33.179688 27.542969 C 33.828125 27.878906 34.625 27.625 34.960938 26.96875 C 36.269531 24.4375 37.007812 21.554688 37.007812 18.503906 C 37.007812 8.300781 28.703125 0 18.503906 0 Z M 18.503906 0 " fill-opacity="1" fill-rule="nonzero"/></g><path fill="#000000" d="M 9.25 17.179688 C 8.523438 17.179688 7.929688 17.773438 7.929688 18.503906 C 7.929688 19.234375 8.523438 19.824219 9.25 19.824219 L 27.753906 19.824219 C 28.484375 19.824219 29.078125 19.234375 29.078125 18.503906 C 29.078125 17.773438 28.484375 17.179688 27.753906 17.179688 Z M 9.25 17.179688 " fill-opacity="1" fill-rule="nonzero"/></svg>