<svg xmlns="http://www.w3.org/2000/svg" xmlns:xlink="http://www.w3.org/1999/xlink" width="500" zoomAndPan="magnify" viewBox="0 0 375 374.999991" height="500" preserveAspectRatio="xMidYMid meet" version="1.0"><defs><clipPath id="57b187dd19"><path d="M 4.4375 4.4375 L 370.4375 4.4375 L 370.4375 370.4375 L 4.4375 370.4375 Z M 4.4375 4.4375 " clip-rule="nonzero"/></clipPath></defs><g clip-path="url(#57b187dd19)"><path fill="#06a3da" d="M 187.496094 4.4375 C 86.378906 4.4375 4.4375 86.378906 4.4375 187.496094 C 4.4375 288.617188 86.378906 370.554688 187.496094 370.554688 C 288.617188 370.554688 370.554688 288.617188 370.554688 187.496094 C 370.398438 86.378906 288.457031 4.4375 187.496094 4.4375 Z M 187.496094 308.585938 C 175.136719 308.585938 163.089844 307 151.835938 303.988281 L 123.148438 319.203125 C 115.066406 323.484375 105.082031 317.621094 105.082031 308.425781 L 105.082031 281.484375 C 75.125 258.976562 55.949219 224.585938 55.949219 186.070312 C 55.949219 118.394531 114.75 63.554688 187.496094 63.554688 C 260.085938 63.554688 319.046875 118.394531 319.046875 186.070312 C 319.046875 253.746094 260.085938 308.585938 187.496094 308.585938 Z M 187.496094 308.585938 " fill-opacity="1" fill-rule="nonzero"/></g><path fill="#06a3da" d="M 96.679688 230.289062 L 166.417969 156.273438 C 169.746094 152.789062 175.292969 152.789062 178.621094 156.117188 L 205.566406 183.535156 C 208.261719 186.230469 212.378906 186.863281 215.710938 184.960938 L 278.472656 149.777344 L 207.941406 223.792969 C 204.613281 227.277344 199.066406 227.277344 195.738281 223.792969 L 170.378906 197.640625 C 167.6875 194.945312 163.566406 194.3125 160.238281 196.054688 Z M 96.679688 230.289062 " fill-opacity="1" fill-rule="nonzero"/></svg>